<svg width="75" height="75" viewBox="0 0 75 75" fill="none" xmlns="http://www.w3.org/2000/svg">
<path fill-rule="evenodd" clip-rule="evenodd" d="M74.25 37.5C74.25 57.7965 57.7965 74.25 37.5 74.25C17.2035 74.25 0.75 57.7965 0.75 37.5C0.75 17.2035 17.2035 0.75 37.5 0.75C57.7965 0.75 74.25 17.2035 74.25 37.5ZM38.8169 27.8805C35.2424 29.3673 28.0985 32.4445 17.3851 37.1121C15.6454 37.8039 14.7341 38.4807 14.6511 39.1425C14.5109 40.2609 15.9115 40.7013 17.8187 41.301C18.0781 41.3826 18.3469 41.4671 18.6225 41.5567C20.4989 42.1666 23.023 42.8802 24.3351 42.9085C25.5254 42.9342 26.8538 42.4435 28.3205 41.4364C38.3304 34.6795 43.4975 31.2642 43.8219 31.1906C44.0507 31.1386 44.3679 31.0733 44.5828 31.2643C44.7977 31.4553 44.7765 31.817 44.7538 31.9141C44.615 32.5055 39.1173 37.6167 36.2722 40.2617C35.3853 41.0863 34.7562 41.6712 34.6275 41.8048C34.3394 42.1041 34.0458 42.3871 33.7636 42.6592C32.0204 44.3396 30.7132 45.5998 33.836 47.6577C35.3367 48.6467 36.5375 49.4644 37.7355 50.2803C39.0439 51.1713 40.3489 52.06 42.0374 53.1668C42.4675 53.4488 42.8784 53.7417 43.2785 54.0269C44.8011 55.1124 46.1691 56.0877 47.8591 55.9321C48.8411 55.8418 49.8555 54.9184 50.3706 52.1644C51.5881 45.6559 53.9812 31.5541 54.5342 25.743C54.5827 25.2339 54.5217 24.5823 54.4728 24.2963C54.4238 24.0103 54.3215 23.6027 53.9497 23.3011C53.5094 22.9438 52.8297 22.8684 52.5257 22.8738C51.1434 22.8981 49.0227 23.6355 38.8169 27.8805Z" fill="#34AADF"/>
</svg>
