<svg width="63" height="61" viewBox="0 0 63 61" fill="none" xmlns="http://www.w3.org/2000/svg">
<path fill-rule="evenodd" clip-rule="evenodd" d="M1.13185 30.2454C1.13778 14.0517 14.8183 0.875 31.6284 0.875C39.7865 0.876976 47.4428 3.93948 53.2003 9.49149C58.9597 15.0415 62.1289 22.4251 62.125 30.2691C62.1191 46.4628 48.4386 59.6414 31.6284 59.6414H31.6166C26.5411 59.6449 21.5404 58.4178 17.043 56.0652L0.875 60.1492L5.20202 44.9296C2.53468 40.4781 1.1279 35.424 1.13185 30.2454ZM40.324 34.0053C41.0234 34.2523 44.7695 36.0285 45.5322 36.3941C45.6833 36.4673 45.8245 36.5332 45.9552 36.5942C46.4841 36.8412 46.8414 37.008 46.9903 37.2536C47.18 37.5598 47.18 39.0298 46.5438 40.7428C45.9115 42.4559 42.8648 44.0187 41.4027 44.2301C40.0908 44.4178 38.4292 44.4988 36.6035 43.9397C35.4951 43.5998 34.0765 43.1474 32.2587 42.3946C25.1263 39.4266 20.3022 32.7727 19.3782 31.4983C19.3119 31.4068 19.2657 31.343 19.2401 31.3103L19.234 31.3025C18.8307 30.7843 16.1282 27.3124 16.1282 23.7173C16.1282 20.3411 17.8496 18.5705 18.6438 17.7535C18.6992 17.6965 18.7501 17.6442 18.7956 17.5963C19.495 16.8613 20.3229 16.6775 20.8267 16.6775C21.3384 16.6775 21.8442 16.6834 22.2888 16.7032C22.3436 16.706 22.4005 16.7058 22.4594 16.7056C22.9039 16.7043 23.4575 16.7026 24.0018 17.9657C24.2379 18.5087 24.5947 19.345 24.9605 20.202C25.5835 21.662 26.2323 23.1822 26.353 23.415C26.5447 23.7805 26.6711 24.2113 26.4182 24.6993C26.3771 24.7778 26.3393 24.8515 26.3033 24.9218C26.1144 25.2905 25.9742 25.5642 25.6556 25.9243C25.5343 26.0614 25.4087 26.2088 25.2828 26.3566C25.0151 26.6709 24.7461 26.9868 24.5136 27.2086C24.1322 27.5741 23.7351 27.9712 24.1796 28.7042C24.6242 29.4412 26.1535 31.8438 28.4197 33.788C30.8532 35.8809 32.97 36.7649 34.0431 37.2131C34.2525 37.3005 34.4222 37.3714 34.5467 37.4314C35.3094 37.7969 35.7539 37.7376 36.2004 37.2476C36.643 36.7596 38.1051 35.1059 38.6109 34.3708C39.1187 33.6358 39.6265 33.7623 40.324 34.0053Z" fill="#00D95F"/>
</svg>
